<?xml version="1.0" encoding="UTF-8"?><svg id="Layer_1" xmlns="http://www.w3.org/2000/svg" viewBox="0 0 311.29 379.93"><defs><style>.cls-1{fill:#fcba08;}.cls-1,.cls-2{stroke:#231f20;stroke-miterlimit:10;stroke-width:18px;}.cls-2{fill:#fc3008;}</style></defs><path class="cls-2" d="m52.97,122.27c-36.24,8.42-71.78,133.2-11.6,202.76,53.04,61.31,159.87,55.94,214.12,11.2,108.31-89.31-.73-329.07-34.56-327.23-27.61,1.5-25.03,164.95-78.14,173.08-36.15,5.54-60.2-66.7-89.81-59.82Z"/><path class="cls-1" d="m57.45,227.12c-24.6,8.41-35.37,66.8-16.08,97.91,3.17,5.11,9.91,13.95,20.16,21.88,3.49,2.7,12.94,9.59,31.77,15.74,6.07,1.98,28.6,8.87,60.23,8.24,13.19-.27,35.89-.93,62.43-11.6,7.58-3.05,27.19-10.92,39.54-23.05,43.41-42.64,14.68-155.13-14.62-158.84-27.85-3.52-41.35,93.11-92.27,97.24-41.04,3.33-63.71-56.9-91.16-47.51Z"/></svg>